STARTFONT 2.1
COMMENT
COMMENT Converted from OpenType font "Patriot-Bold.otf" by "otf2bdf 3.0".
COMMENT
FONT -FreeType-Patriot Bold-Medium-R-Normal--14-100-100-100-P-70-ISO10646-1
SIZE 10 100 100
FONTBOUNDINGBOX 24 18 -6 -4
STARTPROPERTIES 19
FOUNDRY "FreeType"
FAMILY_NAME "Patriot Bold"
WEIGHT_NAME "Medium"
SLANT "R"
SETWIDTH_NAME "Normal"
ADD_STYLE_NAME ""
PIXEL_SIZE 14
POINT_SIZE 100
RESOLUTION_X 100
RESOLUTION_Y 100
SPACING "P"
AVERAGE_WIDTH 70
CHARSET_REGISTRY "ISO10646"
CHARSET_ENCODING "1"
FONT_ASCENT 14
FONT_DESCENT 2
COPYRIGHT "Copyright © 2020 by Behalf Studio. All rights reserved."
_OTF_FONTFILE "Patriot-Bold.otf"
_OTF_PSNAME "Patriot-Bold"
ENDPROPERTIES
CHARS 426
STARTCHAR 0020
ENCODING 32
SWIDTH 360 0
DWIDTH 5 0
BBX 0 0 0 0
BITMAP
ENDCHAR
STARTCHAR 0021
ENCODING 33
SWIDTH 216 0
DWIDTH 3 0
BBX 2 10 1 0
BITMAP
C0
C0
C0
C0
C0
C0
C0
00
C0
C0
ENDCHAR
STARTCHAR 0022
ENCODING 34
SWIDTH 288 0
DWIDTH 4 0
BBX 3 3 1 7
BITMAP
A0
A0
A0
ENDCHAR
STARTCHAR 0023
ENCODING 35
SWIDTH 648 0
DWIDTH 9 0
BBX 7 10 1 0
BITMAP
36
24
24
FE
6C
6C
FE
6C
48
48
ENDCHAR
STARTCHAR 0024
ENCODING 36
SWIDTH 504 0
DWIDTH 7 0
BBX 6 12 1 -1
BITMAP
30
78
FC
CC
E0
70
38
0C
CC
FC
78
30
ENDCHAR
STARTCHAR 0025
ENCODING 37
SWIDTH 936 0
DWIDTH 13 0
BBX 12 10 1 0
BITMAP
70C0
D980
9900
FB00
7600
04C0
09E0
1B30
1120
21E0
ENDCHAR
STARTCHAR 0026
ENCODING 38
SWIDTH 648 0
DWIDTH 9 0
BBX 8 10 1 0
BITMAP
38
FC
C8
C0
7F
FF
C6
C6
FC
7C
ENDCHAR
STARTCHAR 0027
ENCODING 39
SWIDTH 144 0
DWIDTH 2 0
BBX 1 3 1 7
BITMAP
80
80
80
ENDCHAR
STARTCHAR 0028
ENCODING 40
SWIDTH 360 0
DWIDTH 5 0
BBX 3 13 1 -2
BITMAP
20
60
40
C0
80
80
80
80
80
C0
40
60
20
ENDCHAR
STARTCHAR 0029
ENCODING 41
SWIDTH 360 0
DWIDTH 5 0
BBX 3 13 1 -2
BITMAP
80
C0
60
60
20
20
20
20
20
60
40
C0
80
ENDCHAR
STARTCHAR 002A
ENCODING 42
SWIDTH 432 0
DWIDTH 6 0
BBX 5 5 1 5
BITMAP
20
B0
F8
70
50
ENDCHAR
STARTCHAR 002B
ENCODING 43
SWIDTH 576 0
DWIDTH 8 0
BBX 6 7 1 1
BITMAP
30
30
30
FC
30
30
30
ENDCHAR
STARTCHAR 002C
ENCODING 44
SWIDTH 288 0
DWIDTH 4 0
BBX 2 3 1 -2
BITMAP
C0
80
80
ENDCHAR
STARTCHAR 002D
ENCODING 45
SWIDTH 432 0
DWIDTH 6 0
BBX 4 1 1 3
BITMAP
F0
ENDCHAR
STARTCHAR 002E
ENCODING 46
SWIDTH 216 0
DWIDTH 3 0
BBX 2 2 1 0
BITMAP
C0
C0
ENDCHAR
STARTCHAR 002F
ENCODING 47
SWIDTH 432 0
DWIDTH 6 0
BBX 4 10 1 0
BITMAP
10
30
30
20
60
60
40
40
C0
C0
ENDCHAR
STARTCHAR 0030
ENCODING 48
SWIDTH 720 0
DWIDTH 10 0
BBX 9 10 1 0
BITMAP
3C00
7F00
E300
C180
8180
8180
C180
C300
7F00
3E00
ENDCHAR
STARTCHAR 0031
ENCODING 49
SWIDTH 288 0
DWIDTH 4 0
BBX 3 10 1 0
BITMAP
60
E0
E0
60
60
60
60
60
60
60
ENDCHAR
STARTCHAR 0032
ENCODING 50
SWIDTH 576 0
DWIDTH 8 0
BBX 6 10 1 0
BITMAP
78
FC
CC
4C
0C
18
38
70
FC
FC
ENDCHAR
STARTCHAR 0033
ENCODING 51
SWIDTH 504 0
DWIDTH 7 0
BBX 6 10 1 0
BITMAP
FC
F8
30
70
F8
5C
0C
0C
FC
F8
ENDCHAR
STARTCHAR 0034
ENCODING 52
SWIDTH 504 0
DWIDTH 7 0
BBX 8 10 0 0
BITMAP
0E
3E
76
66
C6
C6
FF
06
06
06
ENDCHAR
STARTCHAR 0035
ENCODING 53
SWIDTH 504 0
DWIDTH 7 0
BBX 6 10 1 0
BITMAP
FC
FC
C0
F0
FC
CC
0C
0C
FC
F8
ENDCHAR
STARTCHAR 0036
ENCODING 54
SWIDTH 576 0
DWIDTH 8 0
BBX 7 10 1 0
BITMAP
18
38
30
7C
FE
C6
C6
C6
FE
7C
ENDCHAR
STARTCHAR 0037
ENCODING 55
SWIDTH 504 0
DWIDTH 7 0
BBX 6 10 1 0
BITMAP
FC
FC
18
18
FC
FC
30
70
60
60
ENDCHAR
STARTCHAR 0038
ENCODING 56
SWIDTH 504 0
DWIDTH 7 0
BBX 8 10 0 0
BITMAP
3C
7E
66
7E
7C
66
C3
66
7E
3C
ENDCHAR
STARTCHAR 0039
ENCODING 57
SWIDTH 576 0
DWIDTH 8 0
BBX 7 10 1 0
BITMAP
38
FC
C6
C6
C6
EE
7C
18
38
30
ENDCHAR
STARTCHAR 003A
ENCODING 58
SWIDTH 216 0
DWIDTH 3 0
BBX 2 7 1 0
BITMAP
C0
C0
00
00
00
C0
C0
ENDCHAR
STARTCHAR 003B
ENCODING 59
SWIDTH 288 0
DWIDTH 4 0
BBX 2 9 1 -2
BITMAP
C0
C0
00
00
00
00
C0
80
80
ENDCHAR
STARTCHAR 003C
ENCODING 60
SWIDTH 576 0
DWIDTH 8 0
BBX 6 6 1 2
BITMAP
1C
78
C0
F0
1C
04
ENDCHAR
STARTCHAR 003D
ENCODING 61
SWIDTH 576 0
DWIDTH 8 0
BBX 6 5 1 2
BITMAP
FC
FC
00
FC
FC
ENDCHAR
STARTCHAR 003E
ENCODING 62
SWIDTH 576 0
DWIDTH 8 0
BBX 6 6 1 2
BITMAP
E0
78
0C
3C
E0
80
ENDCHAR
STARTCHAR 003F
ENCODING 63
SWIDTH 432 0
DWIDTH 6 0
BBX 5 10 1 0
BITMAP
70
F8
18
30
20
60
60
00
60
60
ENDCHAR
STARTCHAR 0040
ENCODING 64
SWIDTH 792 0
DWIDTH 11 0
BBX 10 10 1 0
BITMAP
1E00
6180
4080
9EC0
92C0
9680
9F80
C000
6180
3F00
ENDCHAR
STARTCHAR 0041
ENCODING 65
SWIDTH 576 0
DWIDTH 8 0
BBX 7 10 1 0
BITMAP
70
F8
CC
CC
CC
CC
CC
CC
FE
FE
ENDCHAR
STARTCHAR 0042
ENCODING 66
SWIDTH 648 0
DWIDTH 9 0
BBX 8 10 1 0
BITMAP
F8
FE
C6
C6
FE
FE
C7
C7
FE
FC
ENDCHAR
STARTCHAR 0043
ENCODING 67
SWIDTH 648 0
DWIDTH 9 0
BBX 8 10 1 0
BITMAP
1E
7F
E2
C0
C0
C0
C0
E0
7F
3E
ENDCHAR
STARTCHAR 0044
ENCODING 68
SWIDTH 648 0
DWIDTH 9 0
BBX 8 10 1 0
BITMAP
F8
FE
CE
C3
C3
C3
C3
C7
FE
F8
ENDCHAR
STARTCHAR 0045
ENCODING 69
SWIDTH 504 0
DWIDTH 7 0
BBX 7 10 0 0
BITMAP
78
78
60
60
FC
FC
60
60
7E
7E
ENDCHAR
STARTCHAR 0046
ENCODING 70
SWIDTH 432 0
DWIDTH 6 0
BBX 7 10 0 0
BITMAP
7E
7E
60
60
FC
FC
60
60
60
60
ENDCHAR
STARTCHAR 0047
ENCODING 71
SWIDTH 792 0
DWIDTH 11 0
BBX 10 10 1 0
BITMAP
1E00
7F00
E300
C000
CFC0
CFC0
C1C0
E180
7F80
3E00
ENDCHAR
STARTCHAR 0048
ENCODING 72
SWIDTH 576 0
DWIDTH 8 0
BBX 7 10 0 0
BITMAP
66
66
66
66
66
FE
FE
66
66
66
ENDCHAR
STARTCHAR 0049
ENCODING 73
SWIDTH 216 0
DWIDTH 3 0
BBX 4 11 0 0
BITMAP
40
F0
60
20
00
60
60
60
60
60
60
ENDCHAR
STARTCHAR 004A
ENCODING 74
SWIDTH 432 0
DWIDTH 6 0
BBX 6 10 0 0
BITMAP
1C
1C
0C
0C
0C
0C
0C
0C
FC
78
ENDCHAR
STARTCHAR 004B
ENCODING 75
SWIDTH 576 0
DWIDTH 8 0
BBX 7 10 0 0
BITMAP
66
66
66
66
FC
FE
66
66
66
66
ENDCHAR
STARTCHAR 004C
ENCODING 76
SWIDTH 432 0
DWIDTH 6 0
BBX 5 10 1 0
BITMAP
C0
C0
C0
C0
C0
C0
C0
C0
F8
F8
ENDCHAR
STARTCHAR 004D
ENCODING 77
SWIDTH 864 0
DWIDTH 12 0
BBX 12 10 0 0
BITMAP
4430
E730
7FB0
7FF0
6EF0
6630
6630
6630
6630
6630
ENDCHAR
STARTCHAR 004E
ENCODING 78
SWIDTH 576 0
DWIDTH 8 0
BBX 7 10 0 0
BITMAP
46
E6
7E
7E
6E
66
66
66
66
66
ENDCHAR
STARTCHAR 004F
ENCODING 79
SWIDTH 792 0
DWIDTH 11 0
BBX 10 10 1 0
BITMAP
1E00
7F00
E380
C1C0
C0C0
C0C0
C0C0
E180
7F80
3E00
ENDCHAR
STARTCHAR 0050
ENCODING 80
SWIDTH 576 0
DWIDTH 8 0
BBX 8 10 0 0
BITMAP
7C
7E
67
63
67
FE
60
60
60
60
ENDCHAR
STARTCHAR 0051
ENCODING 81
SWIDTH 792 0
DWIDTH 11 0
BBX 10 10 1 -1
BITMAP
1E00
7F00
E380
C1C0
C0C0
C0C0
C0C0
E180
7F80
3F80
ENDCHAR
STARTCHAR 0052
ENCODING 82
SWIDTH 576 0
DWIDTH 8 0
BBX 8 10 0 0
BITMAP
7C
7F
63
63
FF
FE
67
63
63
63
ENDCHAR
STARTCHAR 0053
ENCODING 83
SWIDTH 504 0
DWIDTH 7 0
BBX 6 10 1 0
BITMAP
70
F8
DC
C0
F0
38
1C
CC
FC
78
ENDCHAR
STARTCHAR 0054
ENCODING 84
SWIDTH 504 0
DWIDTH 7 0
BBX 7 10 0 0
BITMAP
FE
FE
18
18
18
18
18
18
18
18
ENDCHAR
STARTCHAR 0055
ENCODING 85
SWIDTH 504 0
DWIDTH 7 0
BBX 6 10 1 0
BITMAP
CC
CC
CC
CC
CC
CC
CC
CC
FC
78
ENDCHAR
STARTCHAR 0056
ENCODING 86
SWIDTH 504 0
DWIDTH 7 0
BBX 6 10 0 0
BITMAP
CC
CC
CC
CC
CC
CC
EC
6C
78
38
ENDCHAR
STARTCHAR 0057
ENCODING 87
SWIDTH 792 0
DWIDTH 11 0
BBX 10 10 0 0
BITMAP
CCC0
CCC0
CCC0
CCC0
CCC0
CCC0
EEC0
6EC0
7F80
3B80
ENDCHAR
STARTCHAR 0058
ENCODING 88
SWIDTH 504 0
DWIDTH 7 0
BBX 6 10 1 0
BITMAP
CC
CC
CC
DC
78
FC
CC
CC
CC
CC
ENDCHAR
STARTCHAR 0059
ENCODING 89
SWIDTH 504 0
DWIDTH 7 0
BBX 6 10 1 0
BITMAP
CC
CC
CC
CC
CC
CC
F8
70
30
30
ENDCHAR
STARTCHAR 005A
ENCODING 90
SWIDTH 504 0
DWIDTH 7 0
BBX 7 10 0 0
BITMAP
FE
FE
0C
0C
18
38
30
60
7E
FE
ENDCHAR
STARTCHAR 005B
ENCODING 91
SWIDTH 216 0
DWIDTH 3 0
BBX 2 14 1 -2
BITMAP
C0
C0
80
80
80
80
80
80
80
80
80
80
80
C0
ENDCHAR
STARTCHAR 005C
ENCODING 92
SWIDTH 432 0
DWIDTH 6 0
BBX 4 10 1 0
BITMAP
C0
C0
C0
40
60
60
20
30
30
10
ENDCHAR
STARTCHAR 005D
ENCODING 93
SWIDTH 216 0
DWIDTH 3 0
BBX 2 14 1 -2
BITMAP
C0
C0
40
40
40
40
40
40
40
40
40
40
40
C0
ENDCHAR
STARTCHAR 005E
ENCODING 94
SWIDTH 504 0
DWIDTH 7 0
BBX 5 3 1 5
BITMAP
70
58
C8
ENDCHAR
STARTCHAR 005F
ENCODING 95
SWIDTH 504 0
DWIDTH 7 0
BBX 6 1 1 -2
BITMAP
FC
ENDCHAR
STARTCHAR 0060
ENCODING 96
SWIDTH 144 0
DWIDTH 2 0
BBX 2 1 0 11
BITMAP
C0
ENDCHAR
STARTCHAR 0061
ENCODING 97
SWIDTH 576 0
DWIDTH 8 0
BBX 7 10 1 0
BITMAP
70
F8
CC
CC
CC
CC
CC
CC
FE
FE
ENDCHAR
STARTCHAR 0062
ENCODING 98
SWIDTH 648 0
DWIDTH 9 0
BBX 8 10 1 0
BITMAP
F8
FE
C6
C6
FE
FE
C7
C7
FE
FC
ENDCHAR
STARTCHAR 0063
ENCODING 99
SWIDTH 648 0
DWIDTH 9 0
BBX 8 10 1 0
BITMAP
1E
7F
E2
C0
C0
C0
C0
E0
7F
3E
ENDCHAR
STARTCHAR 0064
ENCODING 100
SWIDTH 648 0
DWIDTH 9 0
BBX 8 10 1 0
BITMAP
F8
FE
CE
C3
C3
C3
C3
C7
FE
F8
ENDCHAR
STARTCHAR 0065
ENCODING 101
SWIDTH 504 0
DWIDTH 7 0
BBX 7 10 0 0
BITMAP
78
78
60
60
FC
FC
60
60
7E
7E
ENDCHAR
STARTCHAR 0066
ENCODING 102
SWIDTH 432 0
DWIDTH 6 0
BBX 7 10 0 0
BITMAP
7E
7E
60
60
FC
FC
60
60
60
60
ENDCHAR
STARTCHAR 0067
ENCODING 103
SWIDTH 792 0
DWIDTH 11 0
BBX 10 10 1 0
BITMAP
1E00
7F00
E300
C000
CFC0
CFC0
C1C0
E180
7F80
3E00
ENDCHAR
STARTCHAR 0068
ENCODING 104
SWIDTH 576 0
DWIDTH 8 0
BBX 7 10 0 0
BITMAP
66
66
66
66
66
FE
FE
66
66
66
ENDCHAR
STARTCHAR 0069
ENCODING 105
SWIDTH 216 0
DWIDTH 3 0
BBX 4 11 0 0
BITMAP
40
F0
60
20
00
60
60
60
60
60
60
ENDCHAR
STARTCHAR 006A
ENCODING 106
SWIDTH 432 0
DWIDTH 6 0
BBX 6 10 0 0
BITMAP
1C
1C
0C
0C
0C
0C
0C
0C
FC
78
ENDCHAR
STARTCHAR 006B
ENCODING 107
SWIDTH 576 0
DWIDTH 8 0
BBX 7 10 0 0
BITMAP
66
66
66
66
FC
FE
66
66
66
66
ENDCHAR
STARTCHAR 006C
ENCODING 108
SWIDTH 432 0
DWIDTH 6 0
BBX 5 10 1 0
BITMAP
C0
C0
C0
C0
C0
C0
C0
C0
F8
F8
ENDCHAR
STARTCHAR 006D
ENCODING 109
SWIDTH 864 0
DWIDTH 12 0
BBX 12 10 0 0
BITMAP
4430
E730
7FB0
7FF0
6EF0
6630
6630
6630
6630
6630
ENDCHAR
STARTCHAR 006E
ENCODING 110
SWIDTH 576 0
DWIDTH 8 0
BBX 7 10 0 0
BITMAP
46
E6
7E
7E
6E
66
66
66
66
66
ENDCHAR
STARTCHAR 006F
ENCODING 111
SWIDTH 792 0
DWIDTH 11 0
BBX 10 10 1 0
BITMAP
1E00
7F00
E380
C1C0
C0C0
C0C0
C0C0
E180
7F80
3E00
ENDCHAR
STARTCHAR 0070
ENCODING 112
SWIDTH 576 0
DWIDTH 8 0
BBX 8 10 0 0
BITMAP
7C
7E
67
63
67
FE
60
60
60
60
ENDCHAR
STARTCHAR 0071
ENCODING 113
SWIDTH 792 0
DWIDTH 11 0
BBX 10 10 1 -1
BITMAP
1E00
7F00
E380
C1C0
C0C0
C0C0
C0C0
E180
7F80
3F80
ENDCHAR
STARTCHAR 0072
ENCODING 114
SWIDTH 576 0
DWIDTH 8 0
BBX 8 10 0 0
BITMAP
7C
7F
63
63
FF
FE
67
63
63
63
ENDCHAR
STARTCHAR 0073
ENCODING 115
SWIDTH 504 0
DWIDTH 7 0
BBX 6 10 1 0
BITMAP
70
F8
DC
C0
F0
38
1C
CC
FC
78
ENDCHAR
STARTCHAR 0074
ENCODING 116
SWIDTH 504 0
DWIDTH 7 0
BBX 7 10 0 0
BITMAP
FE
FE
18
18
18
18
18
18
18
18
ENDCHAR
STARTCHAR 0075
ENCODING 117
SWIDTH 504 0
DWIDTH 7 0
BBX 6 10 1 0
BITMAP
CC
CC
CC
CC
CC
CC
CC
CC
FC
78
ENDCHAR
STARTCHAR 0076
ENCODING 118
SWIDTH 504 0
DWIDTH 7 0
BBX 6 10 0 0
BITMAP
CC
CC
CC
CC
CC
CC
EC
6C
78
38
ENDCHAR
STARTCHAR 0077
ENCODING 119
SWIDTH 792 0
DWIDTH 11 0
BBX 10 10 0 0
BITMAP
CCC0
CCC0
CCC0
CCC0
CCC0
CCC0
EEC0
6EC0
7F80
3B80
ENDCHAR
STARTCHAR 0078
ENCODING 120
SWIDTH 504 0
DWIDTH 7 0
BBX 6 10 1 0
BITMAP
CC
CC
CC
DC
78
FC
CC
CC
CC
CC
ENDCHAR
STARTCHAR 0079
ENCODING 121
SWIDTH 504 0
DWIDTH 7 0
BBX 6 10 1 0
BITMAP
CC
CC
CC
CC
CC
CC
F8
70
30
30
ENDCHAR
STARTCHAR 007A
ENCODING 122
SWIDTH 504 0
DWIDTH 7 0
BBX 7 10 0 0
BITMAP
FE
FE
0C
0C
18
38
30
60
7E
FE
ENDCHAR
STARTCHAR 007B
ENCODING 123
SWIDTH 288 0
DWIDTH 4 0
BBX 3 14 1 -2
BITMAP
20
60
40
40
40
40
C0
C0
40
40
40
40
40
60
ENDCHAR
STARTCHAR 007C
ENCODING 124
SWIDTH 144 0
DWIDTH 2 0
BBX 1 12 1 -2
BITMAP
80
80
80
80
80
80
80
80
80
80
80
80
ENDCHAR
STARTCHAR 007D
ENCODING 125
SWIDTH 288 0
DWIDTH 4 0
BBX 3 14 1 -2
BITMAP
80
C0
40
40
40
40
60
60
40
40
40
40
40
C0
ENDCHAR
STARTCHAR 007E
ENCODING 126
SWIDTH 504 0
DWIDTH 7 0
BBX 6 2 1 4
BITMAP
40
FC
ENDCHAR
STARTCHAR 00A1
ENCODING 161
SWIDTH 216 0
DWIDTH 3 0
BBX 2 10 1 -2
BITMAP
C0
C0
00
C0
C0
C0
C0
C0
C0
C0
ENDCHAR
STARTCHAR 00A2
ENCODING 162
SWIDTH 504 0
DWIDTH 7 0
BBX 6 8 1 1
BITMAP
30
78
C8
C0
80
C8
7C
30
ENDCHAR
STARTCHAR 00A3
ENCODING 163
SWIDTH 576 0
DWIDTH 8 0
BBX 6 10 1 0
BITMAP
3C
7C
60
60
60
F8
70
60
FC
FC
ENDCHAR
STARTCHAR 00A4
ENCODING 164
SWIDTH 576 0
DWIDTH 8 0
BBX 6 7 1 1
BITMAP
84
FC
C4
C4
C4
FC
94
ENDCHAR
STARTCHAR 00A5
ENCODING 165
SWIDTH 648 0
DWIDTH 9 0
BBX 8 10 1 0
BITMAP
C7
E6
6E
7C
3C
7E
18
7E
18
18
ENDCHAR
STARTCHAR 00A6
ENCODING 166
SWIDTH 144 0
DWIDTH 2 0
BBX 1 12 1 -2
BITMAP
80
80
80
80
80
00
00
80
80
80
80
80
ENDCHAR
STARTCHAR 00A7
ENCODING 167
SWIDTH 504 0
DWIDTH 7 0
BBX 5 12 1 -2
BITMAP
70
F8
D0
60
78
D8
D8
70
38
D8
F8
30
ENDCHAR
STARTCHAR 00A8
ENCODING 168
SWIDTH 360 0
DWIDTH 5 0
BBX 6 3 0 10
BITMAP
48
CC
48
ENDCHAR
STARTCHAR 00A9
ENCODING 169
SWIDTH 792 0
DWIDTH 11 0
BBX 10 10 1 0
BITMAP
1E00
6180
4080
9E40
B040
B040
9C40
8CC0
4080
3F00
ENDCHAR
STARTCHAR 00AB
ENCODING 171
SWIDTH 576 0
DWIDTH 8 0
BBX 7 6 1 1
BITMAP
26
6C
D8
C8
6C
36
ENDCHAR
STARTCHAR 00AC
ENCODING 172
SWIDTH 576 0
DWIDTH 8 0
BBX 6 4 1 1
BITMAP
FC
04
04
04
ENDCHAR
STARTCHAR 00AE
ENCODING 174
SWIDTH 504 0
DWIDTH 7 0
BBX 5 6 1 4
BITMAP
70
A8
F8
D8
88
70
ENDCHAR
STARTCHAR 00AF
ENCODING 175
SWIDTH 216 0
DWIDTH 3 0
BBX 4 1 0 11
BITMAP
F0
ENDCHAR
STARTCHAR 00B0
ENCODING 176
SWIDTH 360 0
DWIDTH 5 0
BBX 3 3 1 7
BITMAP
E0
A0
E0
ENDCHAR
STARTCHAR 00B1
ENCODING 177
SWIDTH 576 0
DWIDTH 8 0
BBX 6 6 1 1
BITMAP
30
FC
30
30
FC
FC
ENDCHAR
STARTCHAR 00B4
ENCODING 180
SWIDTH 144 0
DWIDTH 2 0
BBX 2 1 0 11
BITMAP
C0
ENDCHAR
STARTCHAR 00B6
ENCODING 182
SWIDTH 504 0
DWIDTH 7 0
BBX 6 12 1 -2
BITMAP
74
F4
F4
F4
F4
74
14
14
14
14
14
14
ENDCHAR
STARTCHAR 00B7
ENCODING 183
SWIDTH 216 0
DWIDTH 3 0
BBX 2 2 1 3
BITMAP
C0
C0
ENDCHAR
STARTCHAR 00B8
ENCODING 184
SWIDTH 216 0
DWIDTH 3 0
BBX 3 3 0 -3
BITMAP
40
20
E0
ENDCHAR
STARTCHAR 00BB
ENCODING 187
SWIDTH 576 0
DWIDTH 8 0
BBX 7 6 1 1
BITMAP
DC
6C
36
26
6C
D8
ENDCHAR
STARTCHAR 00BF
ENCODING 191
SWIDTH 432 0
DWIDTH 6 0
BBX 4 11 1 -2
BITMAP
20
70
20
00
20
60
60
C0
D0
F0
60
ENDCHAR
STARTCHAR 00C0
ENCODING 192
SWIDTH 576 0
DWIDTH 8 0
BBX 7 12 1 0
BITMAP
20
00
70
F8
CC
CC
CC
CC
CC
CC
FE
FE
ENDCHAR
STARTCHAR 00C1
ENCODING 193
SWIDTH 576 0
DWIDTH 8 0
BBX 7 12 1 0
BITMAP
10
00
70
F8
CC
CC
CC
CC
CC
CC
FE
FE
ENDCHAR
STARTCHAR 00C2
ENCODING 194
SWIDTH 576 0
DWIDTH 8 0
BBX 7 12 1 1
BITMAP
30
00
70
F8
CC
CC
CC
CC
CC
CC
FE
FE
ENDCHAR
STARTCHAR 00C3
ENCODING 195
SWIDTH 576 0
DWIDTH 8 0
BBX 7 12 1 0
BITMAP
70
00
70
F8
CC
CC
CC
CC
CC
CC
FE
FE
ENDCHAR
STARTCHAR 00C4
ENCODING 196
SWIDTH 576 0
DWIDTH 8 0
BBX 7 13 1 0
BITMAP
C8
DC
48
70
F8
CC
CC
CC
CC
CC
CC
FE
FE
ENDCHAR
STARTCHAR 00C5
ENCODING 197
SWIDTH 576 0
DWIDTH 8 0
BBX 7 13 1 0
BITMAP
70
50
20
70
F8
CC
CC
CC
CC
CC
CC
FE
FE
ENDCHAR
STARTCHAR 00C7
ENCODING 199
SWIDTH 648 0
DWIDTH 9 0
BBX 8 13 1 -3
BITMAP
1E
7F
E2
C0
C0
C0
C0
E0
7F
3E
08
04
18
ENDCHAR
STARTCHAR 00C8
ENCODING 200
SWIDTH 504 0
DWIDTH 7 0
BBX 7 12 0 0
BITMAP
30
00
78
78
60
60
FC
FC
60
60
7E
7E
ENDCHAR
STARTCHAR 00C9
ENCODING 201
SWIDTH 504 0
DWIDTH 7 0
BBX 7 12 0 0
BITMAP
18
00
78
78
60
60
FC
FC
60
60
7E
7E
ENDCHAR
STARTCHAR 00CA
ENCODING 202
SWIDTH 504 0
DWIDTH 7 0
BBX 7 12 0 1
BITMAP
30
08
78
78
60
60
FC
FC
60
60
7E
7E
ENDCHAR
STARTCHAR 00CB
ENCODING 203
SWIDTH 504 0
DWIDTH 7 0
BBX 7 13 0 0
BITMAP
4C
EC
44
78
78
60
60
FC
FC
60
60
7E
7E
ENDCHAR
STARTCHAR 00CC
ENCODING 204
SWIDTH 216 0
DWIDTH 3 0
BBX 3 9 0 0
BITMAP
C0
40
00
60
60
60
60
60
60
ENDCHAR
STARTCHAR 00CD
ENCODING 205
SWIDTH 216 0
DWIDTH 3 0
BBX 2 9 1 0
BITMAP
40
40
00
C0
C0
C0
C0
C0
C0
ENDCHAR
STARTCHAR 00CE
ENCODING 206
SWIDTH 216 0
DWIDTH 3 0
BBX 2 9 1 0
BITMAP
80
C0
00
C0
C0
C0
C0
C0
C0
ENDCHAR
STARTCHAR 00CF
ENCODING 207
SWIDTH 216 0
DWIDTH 3 0
BBX 6 9 -1 0
BITMAP
CC
DC
00
30
30
30
30
30
30
ENDCHAR
STARTCHAR 00D1
ENCODING 209
SWIDTH 576 0
DWIDTH 8 0
BBX 7 12 0 0
BITMAP
3C
00
46
E6
7E
7E
6E
66
66
66
66
66
ENDCHAR
STARTCHAR 00D2
ENCODING 210
SWIDTH 792 0
DWIDTH 11 0
BBX 10 12 1 0
BITMAP
0800
0000
1E00
7F00
E380
C1C0
C0C0
C0C0
C0C0
E180
7F80
3E00
ENDCHAR
STARTCHAR 00D3
ENCODING 211
SWIDTH 792 0
DWIDTH 11 0
BBX 10 12 1 0
BITMAP
0400
0000
1E00
7F00
E380
C1C0
C0C0
C0C0
C0C0
E180
7F80
3E00
ENDCHAR
STARTCHAR 00D4
ENCODING 212
SWIDTH 792 0
DWIDTH 11 0
BBX 10 12 1 1
BITMAP
0C00
0000
1E00
7F00
E380
C1C0
C0C0
C0C0
C0C0
E180
7F80
3E00
ENDCHAR
STARTCHAR 00D5
ENCODING 213
SWIDTH 792 0
DWIDTH 11 0
BBX 10 12 1 0
BITMAP
1C00
0000
1E00
7F00
E380
C1C0
C0C0
C0C0
C0C0
E180
7F80
3E00
ENDCHAR
STARTCHAR 00D6
ENCODING 214
SWIDTH 792 0
DWIDTH 11 0
BBX 10 13 1 0
BITMAP
3200
3700
1200
1E00
7F00
E380
C1C0
C0C0
C0C0
C0C0
E180
7F80
3E00
ENDCHAR
STARTCHAR 00D7
ENCODING 215
SWIDTH 504 0
DWIDTH 7 0
BBX 6 5 1 3
BITMAP
CC
78
30
78
CC
ENDCHAR
STARTCHAR 00D8
ENCODING 216
SWIDTH 792 0
DWIDTH 11 0
BBX 11 10 0 -1
BITMAP
1F40
3FC0
71C0
63E0
E660
CC60
78E0
70C0
3FC0
7F00
ENDCHAR
STARTCHAR 00D9
ENCODING 217
SWIDTH 504 0
DWIDTH 7 0
BBX 6 12 1 0
BITMAP
20
00
CC
CC
CC
CC
CC
CC
CC
CC
FC
78
ENDCHAR
STARTCHAR 00DA
ENCODING 218
SWIDTH 504 0
DWIDTH 7 0
BBX 6 12 1 0
BITMAP
10
00
CC
CC
CC
CC
CC
CC
CC
CC
FC
78
ENDCHAR
STARTCHAR 00DB
ENCODING 219
SWIDTH 504 0
DWIDTH 7 0
BBX 6 12 1 1
BITMAP
30
00
CC
CC
CC
CC
CC
CC
CC
CC
FC
78
ENDCHAR
STARTCHAR 00DC
ENCODING 220
SWIDTH 504 0
DWIDTH 7 0
BBX 6 13 1 0
BITMAP
C8
DC
48
CC
CC
CC
CC
CC
CC
CC
CC
FC
78
ENDCHAR
STARTCHAR 00DD
ENCODING 221
SWIDTH 504 0
DWIDTH 7 0
BBX 6 12 1 0
BITMAP
10
00
CC
CC
CC
CC
CC
CC
F8
70
30
30
ENDCHAR
STARTCHAR 00E0
ENCODING 224
SWIDTH 576 0
DWIDTH 8 0
BBX 7 12 1 0
BITMAP
20
00
70
F8
CC
CC
CC
CC
CC
CC
FE
FE
ENDCHAR
STARTCHAR 00E1
ENCODING 225
SWIDTH 576 0
DWIDTH 8 0
BBX 7 12 1 0
BITMAP
10
00
70
F8
CC
CC
CC
CC
CC
CC
FE
FE
ENDCHAR
STARTCHAR 00E2
ENCODING 226
SWIDTH 576 0
DWIDTH 8 0
BBX 7 12 1 1
BITMAP
30
00
70
F8
CC
CC
CC
CC
CC
CC
FE
FE
ENDCHAR
STARTCHAR 00E3
ENCODING 227
SWIDTH 576 0
DWIDTH 8 0
BBX 7 12 1 0
BITMAP
70
00
70
F8
CC
CC
CC
CC
CC
CC
FE
FE
ENDCHAR
STARTCHAR 00E4
ENCODING 228
SWIDTH 576 0
DWIDTH 8 0
BBX 7 13 1 0
BITMAP
C8
DC
48
70
F8
CC
CC
CC
CC
CC
CC
FE
FE
ENDCHAR
STARTCHAR 00E5
ENCODING 229
SWIDTH 576 0
DWIDTH 8 0
BBX 7 13 1 0
BITMAP
70
50
20
70
F8
CC
CC
CC
CC
CC
CC
FE
FE
ENDCHAR
STARTCHAR 00E7
ENCODING 231
SWIDTH 648 0
DWIDTH 9 0
BBX 8 13 1 -3
BITMAP
1E
7F
E2
C0
C0
C0
C0
E0
7F
3E
08
04
18
ENDCHAR
STARTCHAR 00E8
ENCODING 232
SWIDTH 504 0
DWIDTH 7 0
BBX 7 12 0 0
BITMAP
30
00
78
78
60
60
FC
FC
60
60
7E
7E
ENDCHAR
STARTCHAR 00E9
ENCODING 233
SWIDTH 504 0
DWIDTH 7 0
BBX 7 12 0 0
BITMAP
18
00
78
78
60
60
FC
FC
60
60
7E
7E
ENDCHAR
STARTCHAR 00EA
ENCODING 234
SWIDTH 504 0
DWIDTH 7 0
BBX 7 12 0 1
BITMAP
30
08
78
78
60
60
FC
FC
60
60
7E
7E
ENDCHAR
STARTCHAR 00EB
ENCODING 235
SWIDTH 504 0
DWIDTH 7 0
BBX 7 13 0 0
BITMAP
4C
EC
44
78
78
60
60
FC
FC
60
60
7E
7E
ENDCHAR
STARTCHAR 00EC
ENCODING 236
SWIDTH 216 0
DWIDTH 3 0
BBX 3 9 0 0
BITMAP
C0
40
00
60
60
60
60
60
60
ENDCHAR
STARTCHAR 00ED
ENCODING 237
SWIDTH 216 0
DWIDTH 3 0
BBX 2 9 1 0
BITMAP
40
40
00
C0
C0
C0
C0
C0
C0
ENDCHAR
STARTCHAR 00EE
ENCODING 238
SWIDTH 216 0
DWIDTH 3 0
BBX 2 9 1 0
BITMAP
80
C0
00
C0
C0
C0
C0
C0
C0
ENDCHAR
STARTCHAR 00EF
ENCODING 239
SWIDTH 216 0
DWIDTH 3 0
BBX 6 9 -1 0
BITMAP
CC
DC
00
30
30
30
30
30
30
ENDCHAR
STARTCHAR 00F1
ENCODING 241
SWIDTH 576 0
DWIDTH 8 0
BBX 7 12 0 0
BITMAP
3C
00
46
E6
7E
7E
6E
66
66
66
66
66
ENDCHAR
STARTCHAR 00F2
ENCODING 242
SWIDTH 792 0
DWIDTH 11 0
BBX 10 12 1 0
BITMAP
0800
0000
1E00
7F00
E380
C1C0
C0C0
C0C0
C0C0
E180
7F80
3E00
ENDCHAR
STARTCHAR 00F3
ENCODING 243
SWIDTH 792 0
DWIDTH 11 0
BBX 10 12 1 0
BITMAP
0400
0000
1E00
7F00
E380
C1C0
C0C0
C0C0
C0C0
E180
7F80
3E00
ENDCHAR
STARTCHAR 00F4
ENCODING 244
SWIDTH 792 0
DWIDTH 11 0
BBX 10 12 1 1
BITMAP
0C00
0000
1E00
7F00
E380
C1C0
C0C0
C0C0
C0C0
E180
7F80
3E00
ENDCHAR
STARTCHAR 00F5
ENCODING 245
SWIDTH 792 0
DWIDTH 11 0
BBX 10 12 1 0
BITMAP
1C00
0000
1E00
7F00
E380
C1C0
C0C0
C0C0
C0C0
E180
7F80
3E00
ENDCHAR
STARTCHAR 00F6
ENCODING 246
SWIDTH 792 0
DWIDTH 11 0
BBX 10 13 1 0
BITMAP
3200
3700
1200
1E00
7F00
E380
C1C0
C0C0
C0C0
C0C0
E180
7F80
3E00
ENDCHAR
STARTCHAR 00F7
ENCODING 247
SWIDTH 576 0
DWIDTH 8 0
BBX 6 7 1 1
BITMAP
30
30
00
FC
00
30
30
ENDCHAR
STARTCHAR 00F8
ENCODING 248
SWIDTH 792 0
DWIDTH 11 0
BBX 11 10 0 -1
BITMAP
1F40
3FC0
71C0
63E0
E660
CC60
78E0
70C0
3FC0
7F00
ENDCHAR
STARTCHAR 00F9
ENCODING 249
SWIDTH 504 0
DWIDTH 7 0
BBX 6 12 1 0
BITMAP
20
00
CC
CC
CC
CC
CC
CC
CC
CC
FC
78
ENDCHAR
STARTCHAR 00FA
ENCODING 250
SWIDTH 504 0
DWIDTH 7 0
BBX 6 12 1 0
BITMAP
10
00
CC
CC
CC
CC
CC
CC
CC
CC
FC
78
ENDCHAR
STARTCHAR 00FB
ENCODING 251
SWIDTH 504 0
DWIDTH 7 0
BBX 6 12 1 1
BITMAP
30
00
CC
CC
CC
CC
CC
CC
CC
CC
FC
78
ENDCHAR
STARTCHAR 00FC
ENCODING 252
SWIDTH 504 0
DWIDTH 7 0
BBX 6 13 1 0
BITMAP
C8
DC
48
CC
CC
CC
CC
CC
CC
CC
CC
FC
78
ENDCHAR
STARTCHAR 00FD
ENCODING 253
SWIDTH 504 0
DWIDTH 7 0
BBX 6 12 1 0
BITMAP
10
00
CC
CC
CC
CC
CC
CC
F8
70
30
30
ENDCHAR
STARTCHAR 00FF
ENCODING 255
SWIDTH 504 0
DWIDTH 7 0
BBX 6 13 1 0
BITMAP
C8
DC
C8
CC
CC
CC
CC
CC
CC
F8
70
30
30
ENDCHAR
STARTCHAR 0100
ENCODING 256
SWIDTH 576 0
DWIDTH 8 0
BBX 7 12 1 0
BITMAP
78
00
70
F8
CC
CC
CC
CC
CC
CC
FE
FE
ENDCHAR
STARTCHAR 0101
ENCODING 257
SWIDTH 576 0
DWIDTH 8 0
BBX 7 12 1 0
BITMAP
78
00
70
F8
CC
CC
CC
CC
CC
CC
FE
FE
ENDCHAR
STARTCHAR 0102
ENCODING 258
SWIDTH 576 0
DWIDTH 8 0
BBX 7 12 1 0
BITMAP
70
00
70
F8
CC
CC
CC
CC
CC
CC
FE
FE
ENDCHAR
STARTCHAR 0103
ENCODING 259
SWIDTH 576 0
DWIDTH 8 0
BBX 7 12 1 0
BITMAP
70
00
70
F8
CC
CC
CC
CC
CC
CC
FE
FE
ENDCHAR
STARTCHAR 0104
ENCODING 260
SWIDTH 576 0
DWIDTH 8 0
BBX 7 13 1 -3
BITMAP
70
F8
CC
CC
CC
CC
CC
CC
FE
FE
04
08
06
ENDCHAR
STARTCHAR 0105
ENCODING 261
SWIDTH 576 0
DWIDTH 8 0
BBX 7 13 1 -3
BITMAP
70
F8
CC
CC
CC
CC
CC
CC
FE
FE
04
08
06
ENDCHAR
STARTCHAR 0106
ENCODING 262
SWIDTH 648 0
DWIDTH 9 0
BBX 8 12 1 0
BITMAP
0C
00
1E
7F
E2
C0
C0
C0
C0
E0
7F
3E
ENDCHAR
STARTCHAR 0107
ENCODING 263
SWIDTH 648 0
DWIDTH 9 0
BBX 8 12 1 0
BITMAP
0C
00
1E
7F
E2
C0
C0
C0
C0
E0
7F
3E
ENDCHAR
STARTCHAR 010A
ENCODING 266
SWIDTH 648 0
DWIDTH 9 0
BBX 8 13 1 0
BITMAP
0C
0C
00
1E
7F
E2
C0
C0
C0
C0
E0
7F
3E
ENDCHAR
STARTCHAR 010B
ENCODING 267
SWIDTH 648 0
DWIDTH 9 0
BBX 8 13 1 0
BITMAP
0C
0C
00
1E
7F
E2
C0
C0
C0
C0
E0
7F
3E
ENDCHAR
STARTCHAR 010C
ENCODING 268
SWIDTH 648 0
DWIDTH 9 0
BBX 8 12 1 0
BITMAP
1C
00
1E
7F
E2
C0
C0
C0
C0
E0
7F
3E
ENDCHAR
STARTCHAR 010D
ENCODING 269
SWIDTH 648 0
DWIDTH 9 0
BBX 8 12 1 0
BITMAP
1C
00
1E
7F
E2
C0
C0
C0
C0
E0
7F
3E
ENDCHAR
STARTCHAR 010E
ENCODING 270
SWIDTH 648 0
DWIDTH 9 0
BBX 8 12 1 0
BITMAP
30
00
F8
FE
CE
C3
C3
C3
C3
C7
FE
F8
ENDCHAR
STARTCHAR 010F
ENCODING 271
SWIDTH 648 0
DWIDTH 9 0
BBX 8 12 1 0
BITMAP
30
00
F8
FE
CE
C3
C3
C3
C3
C7
FE
F8
ENDCHAR
STARTCHAR 0110
ENCODING 272
SWIDTH 648 0
DWIDTH 9 0
BBX 9 10 0 0
BITMAP
7C00
7F00
6380
6180
F980
F980
6180
6380
7F00
7E00
ENDCHAR
STARTCHAR 0111
ENCODING 273
SWIDTH 648 0
DWIDTH 9 0
BBX 9 10 0 0
BITMAP
7C00
7F00
6380
6180
F980
F980
6180
6380
7F00
7E00
ENDCHAR
STARTCHAR 0112
ENCODING 274
SWIDTH 504 0
DWIDTH 7 0
BBX 7 12 0 0
BITMAP
78
00
78
78
60
60
FC
FC
60
60
7E
7E
ENDCHAR
STARTCHAR 0113
ENCODING 275
SWIDTH 504 0
DWIDTH 7 0
BBX 7 12 0 0
BITMAP
78
00
78
78
60
60
FC
FC
60
60
7E
7E
ENDCHAR
STARTCHAR 0116
ENCODING 278
SWIDTH 504 0
DWIDTH 7 0
BBX 7 13 0 0
BITMAP
30
38
00
78
78
60
60
FC
FC
60
60
7E
7E
ENDCHAR
STARTCHAR 0117
ENCODING 279
SWIDTH 504 0
DWIDTH 7 0
BBX 7 13 0 0
BITMAP
30
38
00
78
78
60
60
FC
FC
60
60
7E
7E
ENDCHAR
STARTCHAR 0118
ENCODING 280
SWIDTH 504 0
DWIDTH 7 0
BBX 7 13 0 -3
BITMAP
78
78
60
60
FC
FC
60
60
7E
7E
04
04
06
ENDCHAR
STARTCHAR 0119
ENCODING 281
SWIDTH 504 0
DWIDTH 7 0
BBX 7 13 0 -3
BITMAP
78
78
60
60
FC
FC
60
60
7E
7E
04
04
06
ENDCHAR
STARTCHAR 011A
ENCODING 282
SWIDTH 504 0
DWIDTH 7 0
BBX 7 12 0 0
BITMAP
38
00
78
78
60
60
FC
FC
60
60
7E
7E
ENDCHAR
STARTCHAR 011B
ENCODING 283
SWIDTH 504 0
DWIDTH 7 0
BBX 7 12 0 0
BITMAP
38
00
78
78
60
60
FC
FC
60
60
7E
7E
ENDCHAR
STARTCHAR 011E
ENCODING 286
SWIDTH 792 0
DWIDTH 11 0
BBX 10 12 1 0
BITMAP
1C00
0000
1E00
7F00
E300
C000
CFC0
CFC0
C1C0
E180
7F80
3E00
ENDCHAR
STARTCHAR 011F
ENCODING 287
SWIDTH 792 0
DWIDTH 11 0
BBX 10 12 1 0
BITMAP
1C00
0000
1E00
7F00
E300
C000
CFC0
CFC0
C1C0
E180
7F80
3E00
ENDCHAR
STARTCHAR 0120
ENCODING 288
SWIDTH 792 0
DWIDTH 11 0
BBX 10 13 1 0
BITMAP
0C00
0C00
0000
1E00
7F00
E300
C000
CFC0
CFC0
C1C0
E180
7F80
3E00
ENDCHAR
STARTCHAR 0121
ENCODING 289
SWIDTH 792 0
DWIDTH 11 0
BBX 10 13 1 0
BITMAP
0C00
0C00
0000
1E00
7F00
E300
C000
CFC0
CFC0
C1C0
E180
7F80
3E00
ENDCHAR
STARTCHAR 0124
ENCODING 292
SWIDTH 576 0
DWIDTH 8 0
BBX 7 13 0 0
BITMAP
08
18
04
66
66
66
66
66
FE
FE
66
66
66
ENDCHAR
STARTCHAR 0125
ENCODING 293
SWIDTH 576 0
DWIDTH 8 0
BBX 7 13 0 0
BITMAP
08
18
04
66
66
66
66
66
FE
FE
66
66
66
ENDCHAR
STARTCHAR 0128
ENCODING 296
SWIDTH 216 0
DWIDTH 3 0
BBX 3 9 0 0
BITMAP
C0
E0
00
60
60
60
60
60
60
ENDCHAR
STARTCHAR 0129
ENCODING 297
SWIDTH 216 0
DWIDTH 3 0
BBX 3 9 0 0
BITMAP
C0
E0
00
60
60
60
60
60
60
ENDCHAR
STARTCHAR 012A
ENCODING 298
SWIDTH 216 0
DWIDTH 3 0
BBX 4 9 0 0
BITMAP
F0
F0
00
60
60
60
60
60
60
ENDCHAR
STARTCHAR 012B
ENCODING 299
SWIDTH 216 0
DWIDTH 3 0
BBX 4 9 0 0
BITMAP
F0
F0
00
60
60
60
60
60
60
ENDCHAR
STARTCHAR 012E
ENCODING 302
SWIDTH 216 0
DWIDTH 3 0
BBX 4 14 0 -3
BITMAP
40
F0
60
20
00
60
60
60
60
60
60
C0
80
60
ENDCHAR
STARTCHAR 012F
ENCODING 303
SWIDTH 216 0
DWIDTH 3 0
BBX 4 14 0 -3
BITMAP
40
F0
60
20
00
60
60
60
60
60
60
C0
80
60
ENDCHAR
STARTCHAR 0130
ENCODING 304
SWIDTH 216 0
DWIDTH 3 0
BBX 2 9 1 0
BITMAP
C0
C0
00
C0
C0
C0
C0
C0
C0
ENDCHAR
STARTCHAR 0139
ENCODING 313
SWIDTH 432 0
DWIDTH 6 0
BBX 5 12 1 0
BITMAP
40
00
C0
C0
C0
C0
C0
C0
C0
C0
F8
F8
ENDCHAR
STARTCHAR 013A
ENCODING 314
SWIDTH 432 0
DWIDTH 6 0
BBX 5 12 1 0
BITMAP
40
00
C0
C0
C0
C0
C0
C0
C0
C0
F8
F8
ENDCHAR
STARTCHAR 013D
ENCODING 317
SWIDTH 432 0
DWIDTH 6 0
BBX 5 12 1 0
BITMAP
C0
00
C0
C0
C0
C0
C0
C0
C0
C0
F8
F8
ENDCHAR
STARTCHAR 013E
ENCODING 318
SWIDTH 432 0
DWIDTH 6 0
BBX 5 12 1 0
BITMAP
C0
00
C0
C0
C0
C0
C0
C0
C0
C0
F8
F8
ENDCHAR
STARTCHAR 0141
ENCODING 321
SWIDTH 504 0
DWIDTH 7 0
BBX 6 10 1 0
BITMAP
60
60
60
70
70
E0
60
60
7C
7C
ENDCHAR
STARTCHAR 0142
ENCODING 322
SWIDTH 504 0
DWIDTH 7 0
BBX 6 10 1 0
BITMAP
60
60
60
70
70
E0
60
60
7C
7C
ENDCHAR
STARTCHAR 0143
ENCODING 323
SWIDTH 576 0
DWIDTH 8 0
BBX 7 12 0 0
BITMAP
08
00
46
E6
7E
7E
6E
66
66
66
66
66
ENDCHAR
STARTCHAR 0144
ENCODING 324
SWIDTH 576 0
DWIDTH 8 0
BBX 7 12 0 0
BITMAP
08
00
46
E6
7E
7E
6E
66
66
66
66
66
ENDCHAR
STARTCHAR 0147
ENCODING 327
SWIDTH 576 0
DWIDTH 8 0
BBX 7 12 0 0
BITMAP
18
00
46
E6
7E
7E
6E
66
66
66
66
66
ENDCHAR
STARTCHAR 0148
ENCODING 328
SWIDTH 576 0
DWIDTH 8 0
BBX 7 12 0 0
BITMAP
18
00
46
E6
7E
7E
6E
66
66
66
66
66
ENDCHAR
STARTCHAR 014C
ENCODING 332
SWIDTH 792 0
DWIDTH 11 0
BBX 10 12 1 0
BITMAP
1E00
0000
1E00
7F00
E380
C1C0
C0C0
C0C0
C0C0
E180
7F80
3E00
ENDCHAR
STARTCHAR 014D
ENCODING 333
SWIDTH 792 0
DWIDTH 11 0
BBX 10 12 1 0
BITMAP
1E00
0000
1E00
7F00
E380
C1C0
C0C0
C0C0
C0C0
E180
7F80
3E00
ENDCHAR
STARTCHAR 0150
ENCODING 336
SWIDTH 792 0
DWIDTH 11 0
BBX 10 12 1 0
BITMAP
1A00
0000
1E00
7F00
E380
C1C0
C0C0
C0C0
C0C0
E180
7F80
3E00
ENDCHAR
STARTCHAR 0151
ENCODING 337
SWIDTH 792 0
DWIDTH 11 0
BBX 10 12 1 0
BITMAP
1A00
0000
1E00
7F00
E380
C1C0
C0C0
C0C0
C0C0
E180
7F80
3E00
ENDCHAR
STARTCHAR 0154
ENCODING 340
SWIDTH 576 0
DWIDTH 8 0
BBX 8 12 0 0
BITMAP
0C
00
7C
7F
63
63
FF
FE
67
63
63
63
ENDCHAR
STARTCHAR 0155
ENCODING 341
SWIDTH 576 0
DWIDTH 8 0
BBX 8 12 0 0
BITMAP
0C
00
7C
7F
63
63
FF
FE
67
63
63
63
ENDCHAR
STARTCHAR 0158
ENCODING 344
SWIDTH 576 0
DWIDTH 8 0
BBX 8 12 0 0
BITMAP
1C
00
7C
7F
63
63
FF
FE
67
63
63
63
ENDCHAR
STARTCHAR 0159
ENCODING 345
SWIDTH 576 0
DWIDTH 8 0
BBX 8 12 0 0
BITMAP
1C
00
7C
7F
63
63
FF
FE
67
63
63
63
ENDCHAR
STARTCHAR 015A
ENCODING 346
SWIDTH 504 0
DWIDTH 7 0
BBX 6 12 1 0
BITMAP
30
00
70
F8
DC
C0
F0
38
1C
CC
FC
78
ENDCHAR
STARTCHAR 015B
ENCODING 347
SWIDTH 504 0
DWIDTH 7 0
BBX 6 12 1 0
BITMAP
30
00
70
F8
DC
C0
F0
38
1C
CC
FC
78
ENDCHAR
STARTCHAR 015E
ENCODING 350
SWIDTH 504 0
DWIDTH 7 0
BBX 6 13 1 -3
BITMAP
70
F8
DC
C0
F0
38
1C
CC
FC
78
20
10
70
ENDCHAR
STARTCHAR 015F
ENCODING 351
SWIDTH 504 0
DWIDTH 7 0
BBX 6 13 1 -3
BITMAP
70
F8
DC
C0
F0
38
1C
CC
FC
78
20
10
70
ENDCHAR
STARTCHAR 0160
ENCODING 352
SWIDTH 504 0
DWIDTH 7 0
BBX 6 12 1 0
BITMAP
70
20
70
F8
DC
C0
F0
38
1C
CC
FC
78
ENDCHAR
STARTCHAR 0161
ENCODING 353
SWIDTH 504 0
DWIDTH 7 0
BBX 6 12 1 0
BITMAP
70
20
70
F8
DC
C0
F0
38
1C
CC
FC
78
ENDCHAR
STARTCHAR 0162
ENCODING 354
SWIDTH 504 0
DWIDTH 7 0
BBX 7 13 0 -3
BITMAP
FE
FE
18
18
18
18
18
18
18
18
10
08
38
ENDCHAR
STARTCHAR 0163
ENCODING 355
SWIDTH 504 0
DWIDTH 7 0
BBX 7 13 0 -3
BITMAP
FE
FE
18
18
18
18
18
18
18
18
10
08
38
ENDCHAR
STARTCHAR 0164
ENCODING 356
SWIDTH 504 0
DWIDTH 7 0
BBX 7 12 0 0
BITMAP
38
00
FE
FE
18
18
18
18
18
18
18
18
ENDCHAR
STARTCHAR 0165
ENCODING 357
SWIDTH 504 0
DWIDTH 7 0
BBX 7 12 0 0
BITMAP
38
00
FE
FE
18
18
18
18
18
18
18
18
ENDCHAR
STARTCHAR 0168
ENCODING 360
SWIDTH 504 0
DWIDTH 7 0
BBX 6 12 1 0
BITMAP
70
00
CC
CC
CC
CC
CC
CC
CC
CC
FC
78
ENDCHAR
STARTCHAR 0169
ENCODING 361
SWIDTH 504 0
DWIDTH 7 0
BBX 6 12 1 0
BITMAP
70
00
CC
CC
CC
CC
CC
CC
CC
CC
FC
78
ENDCHAR
STARTCHAR 016A
ENCODING 362
SWIDTH 504 0
DWIDTH 7 0
BBX 6 12 1 0
BITMAP
78
00
CC
CC
CC
CC
CC
CC
CC
CC
FC
78
ENDCHAR
STARTCHAR 016B
ENCODING 363
SWIDTH 504 0
DWIDTH 7 0
BBX 6 12 1 0
BITMAP
78
00
CC
CC
CC
CC
CC
CC
CC
CC
FC
78
ENDCHAR
STARTCHAR 016E
ENCODING 366
SWIDTH 504 0
DWIDTH 7 0
BBX 6 13 1 0
BITMAP
70
50
20
CC
CC
CC
CC
CC
CC
CC
CC
FC
78
ENDCHAR
STARTCHAR 016F
ENCODING 367
SWIDTH 504 0
DWIDTH 7 0
BBX 6 13 1 0
BITMAP
70
50
20
CC
CC
CC
CC
CC
CC
CC
CC
FC
78
ENDCHAR
STARTCHAR 0170
ENCODING 368
SWIDTH 504 0
DWIDTH 7 0
BBX 6 12 1 0
BITMAP
68
00
CC
CC
CC
CC
CC
CC
CC
CC
FC
78
ENDCHAR
STARTCHAR 0171
ENCODING 369
SWIDTH 504 0
DWIDTH 7 0
BBX 6 12 1 0
BITMAP
68
00
CC
CC
CC
CC
CC
CC
CC
CC
FC
78
ENDCHAR
STARTCHAR 0172
ENCODING 370
SWIDTH 504 0
DWIDTH 7 0
BBX 6 13 1 -3
BITMAP
CC
CC
CC
CC
CC
CC
CC
CC
FC
78
20
60
30
ENDCHAR
STARTCHAR 0173
ENCODING 371
SWIDTH 504 0
DWIDTH 7 0
BBX 6 13 1 -3
BITMAP
CC
CC
CC
CC
CC
CC
CC
CC
FC
78
20
60
30
ENDCHAR
STARTCHAR 0176
ENCODING 374
SWIDTH 504 0
DWIDTH 7 0
BBX 6 12 1 1
BITMAP
30
40
CC
CC
CC
CC
CC
CC
F8
70
30
30
ENDCHAR
STARTCHAR 0177
ENCODING 375
SWIDTH 504 0
DWIDTH 7 0
BBX 6 12 1 1
BITMAP
30
40
CC
CC
CC
CC
CC
CC
F8
70
30
30
ENDCHAR
STARTCHAR 0178
ENCODING 376
SWIDTH 504 0
DWIDTH 7 0
BBX 6 13 1 0
BITMAP
C8
DC
C8
CC
CC
CC
CC
CC
CC
F8
70
30
30
ENDCHAR
STARTCHAR 0179
ENCODING 377
SWIDTH 504 0
DWIDTH 7 0
BBX 7 12 0 0
BITMAP
08
00
FE
FE
0C
0C
18
38
30
60
7E
FE
ENDCHAR
STARTCHAR 017A
ENCODING 378
SWIDTH 504 0
DWIDTH 7 0
BBX 7 12 0 0
BITMAP
08
00
FE
FE
0C
0C
18
38
30
60
7E
FE
ENDCHAR
STARTCHAR 017B
ENCODING 379
SWIDTH 504 0
DWIDTH 7 0
BBX 7 13 0 0
BITMAP
18
18
00
FE
FE
0C
0C
18
38
30
60
7E
FE
ENDCHAR
STARTCHAR 017C
ENCODING 380
SWIDTH 504 0
DWIDTH 7 0
BBX 7 13 0 0
BITMAP
18
18
00
FE
FE
0C
0C
18
38
30
60
7E
FE
ENDCHAR
STARTCHAR 017D
ENCODING 381
SWIDTH 504 0
DWIDTH 7 0
BBX 7 12 0 0
BITMAP
18
00
FE
FE
0C
0C
18
38
30
60
7E
FE
ENDCHAR
STARTCHAR 017E
ENCODING 382
SWIDTH 504 0
DWIDTH 7 0
BBX 7 12 0 0
BITMAP
18
00
FE
FE
0C
0C
18
38
30
60
7E
FE
ENDCHAR
STARTCHAR 01A0
ENCODING 416
SWIDTH 792 0
DWIDTH 11 0
BBX 10 11 1 0
BITMAP
00C0
1E80
7F00
E380
C1C0
C0C0
C0C0
C0C0
E180
7F80
3E00
ENDCHAR
STARTCHAR 01A1
ENCODING 417
SWIDTH 792 0
DWIDTH 11 0
BBX 10 11 1 0
BITMAP
00C0
1E80
7F00
E380
C1C0
C0C0
C0C0
C0C0
E180
7F80
3E00
ENDCHAR
STARTCHAR 01AF
ENCODING 431
SWIDTH 504 0
DWIDTH 7 0
BBX 8 11 1 0
BITMAP
03
CE
CC
CC
CC
CC
CC
CC
CC
FC
78
ENDCHAR
STARTCHAR 01B0
ENCODING 432
SWIDTH 504 0
DWIDTH 7 0
BBX 8 11 1 0
BITMAP
03
CE
CC
CC
CC
CC
CC
CC
CC
FC
78
ENDCHAR
STARTCHAR 01CD
ENCODING 461
SWIDTH 576 0
DWIDTH 8 0
BBX 7 12 1 0
BITMAP
30
00
70
F8
CC
CC
CC
CC
CC
CC
FE
FE
ENDCHAR
STARTCHAR 01CE
ENCODING 462
SWIDTH 576 0
DWIDTH 8 0
BBX 7 12 1 0
BITMAP
30
00
70
F8
CC
CC
CC
CC
CC
CC
FE
FE
ENDCHAR
STARTCHAR 01CF
ENCODING 463
SWIDTH 216 0
DWIDTH 3 0
BBX 3 9 0 0
BITMAP
E0
60
00
60
60
60
60
60
60
ENDCHAR
STARTCHAR 01D0
ENCODING 464
SWIDTH 216 0
DWIDTH 3 0
BBX 3 9 0 0
BITMAP
E0
60
00
60
60
60
60
60
60
ENDCHAR
STARTCHAR 01D1
ENCODING 465
SWIDTH 792 0
DWIDTH 11 0
BBX 10 12 1 0
BITMAP
0C00
0000
1E00
7F00
E380
C1C0
C0C0
C0C0
C0C0
E180
7F80
3E00
ENDCHAR
STARTCHAR 01D2
ENCODING 466
SWIDTH 792 0
DWIDTH 11 0
BBX 10 12 1 0
BITMAP
0C00
0000
1E00
7F00
E380
C1C0
C0C0
C0C0
C0C0
E180
7F80
3E00
ENDCHAR
STARTCHAR 01D3
ENCODING 467
SWIDTH 504 0
DWIDTH 7 0
BBX 6 12 1 0
BITMAP
30
00
CC
CC
CC
CC
CC
CC
CC
CC
FC
78
ENDCHAR
STARTCHAR 01D4
ENCODING 468
SWIDTH 504 0
DWIDTH 7 0
BBX 6 12 1 0
BITMAP
30
00
CC
CC
CC
CC
CC
CC
CC
CC
FC
78
ENDCHAR
STARTCHAR 02C6
ENCODING 710
SWIDTH 288 0
DWIDTH 4 0
BBX 3 1 0 12
BITMAP
E0
ENDCHAR
STARTCHAR 02C7
ENCODING 711
SWIDTH 216 0
DWIDTH 3 0
BBX 3 1 0 10
BITMAP
E0
ENDCHAR
STARTCHAR 02D8
ENCODING 728
SWIDTH 288 0
DWIDTH 4 0
BBX 3 1 0 11
BITMAP
E0
ENDCHAR
STARTCHAR 02D9
ENCODING 729
SWIDTH 144 0
DWIDTH 2 0
BBX 2 2 0 11
BITMAP
C0
C0
ENDCHAR
STARTCHAR 02DA
ENCODING 730
SWIDTH 144 0
DWIDTH 2 0
BBX 3 3 0 10
BITMAP
E0
A0
40
ENDCHAR
STARTCHAR 02DB
ENCODING 731
SWIDTH 216 0
DWIDTH 3 0
BBX 3 3 0 -3
BITMAP
C0
A0
60
ENDCHAR
STARTCHAR 02DC
ENCODING 732
SWIDTH 216 0
DWIDTH 3 0
BBX 3 1 0 11
BITMAP
E0
ENDCHAR
STARTCHAR 02DD
ENCODING 733
SWIDTH 288 0
DWIDTH 4 0
BBX 4 1 0 11
BITMAP
D0
ENDCHAR
STARTCHAR 0300
ENCODING 768
SWIDTH 0 0
DWIDTH 0 0
BBX 2 1 -2 11
BITMAP
C0
ENDCHAR
STARTCHAR 0301
ENCODING 769
SWIDTH 0 0
DWIDTH 0 0
BBX 2 1 -2 11
BITMAP
C0
ENDCHAR
STARTCHAR 0302
ENCODING 770
SWIDTH 0 0
DWIDTH 0 0
BBX 3 1 -3 12
BITMAP
E0
ENDCHAR
STARTCHAR 0303
ENCODING 771
SWIDTH 0 0
DWIDTH 0 0
BBX 3 1 -3 11
BITMAP
E0
ENDCHAR
STARTCHAR 0304
ENCODING 772
SWIDTH 0 0
DWIDTH 0 0
BBX 4 1 -4 11
BITMAP
F0
ENDCHAR
STARTCHAR 0306
ENCODING 774
SWIDTH 0 0
DWIDTH 0 0
BBX 3 1 -3 11
BITMAP
E0
ENDCHAR
STARTCHAR 0307
ENCODING 775
SWIDTH 0 0
DWIDTH 0 0
BBX 2 2 -2 11
BITMAP
C0
C0
ENDCHAR
STARTCHAR 0308
ENCODING 776
SWIDTH 0 0
DWIDTH 0 0
BBX 6 3 -6 10
BITMAP
4C
EC
48
ENDCHAR
STARTCHAR 0309
ENCODING 777
SWIDTH 0 0
DWIDTH 0 0
BBX 2 2 -2 11
BITMAP
40
C0
ENDCHAR
STARTCHAR 030A
ENCODING 778
SWIDTH 0 0
DWIDTH 0 0
BBX 3 3 -3 10
BITMAP
E0
A0
40
ENDCHAR
STARTCHAR 030B
ENCODING 779
SWIDTH 0 0
DWIDTH 0 0
BBX 3 1 -4 11
BITMAP
A0
ENDCHAR
STARTCHAR 030C
ENCODING 780
SWIDTH 0 0
DWIDTH 0 0
BBX 3 1 -3 10
BITMAP
E0
ENDCHAR
STARTCHAR 031B
ENCODING 795
SWIDTH 0 0
DWIDTH 0 0
BBX 2 2 -2 9
BITMAP
C0
C0
ENDCHAR
STARTCHAR 0323
ENCODING 803
SWIDTH 0 0
DWIDTH 0 0
BBX 2 3 -2 -4
BITMAP
80
C0
C0
ENDCHAR
STARTCHAR 0326
ENCODING 806
SWIDTH 0 0
DWIDTH 0 0
BBX 2 2 -2 -3
BITMAP
C0
80
ENDCHAR
STARTCHAR 0327
ENCODING 807
SWIDTH 0 0
DWIDTH 0 0
BBX 3 3 -3 -3
BITMAP
40
20
E0
ENDCHAR
STARTCHAR 0328
ENCODING 808
SWIDTH 0 0
DWIDTH 0 0
BBX 3 3 -3 -3
BITMAP
80
80
E0
ENDCHAR
STARTCHAR 0335
ENCODING 821
SWIDTH 0 0
DWIDTH 0 0
BBX 5 2 -5 2
BITMAP
F8
F8
ENDCHAR
STARTCHAR 1EA0
ENCODING 7840
SWIDTH 576 0
DWIDTH 8 0
BBX 7 14 1 -4
BITMAP
70
F8
CC
CC
CC
CC
CC
CC
FE
FE
00
20
30
30
ENDCHAR
STARTCHAR 1EA1
ENCODING 7841
SWIDTH 576 0
DWIDTH 8 0
BBX 7 14 1 -4
BITMAP
70
F8
CC
CC
CC
CC
CC
CC
FE
FE
00
20
30
30
ENDCHAR
STARTCHAR 1EA2
ENCODING 7842
SWIDTH 576 0
DWIDTH 8 0
BBX 7 13 1 0
BITMAP
30
20
00
70
F8
CC
CC
CC
CC
CC
CC
FE
FE
ENDCHAR
STARTCHAR 1EA3
ENCODING 7843
SWIDTH 576 0
DWIDTH 8 0
BBX 7 13 1 0
BITMAP
30
20
00
70
F8
CC
CC
CC
CC
CC
CC
FE
FE
ENDCHAR
STARTCHAR 1EA4
ENCODING 7844
SWIDTH 576 0
DWIDTH 8 0
BBX 7 13 1 0
BITMAP
04
30
00
70
F8
CC
CC
CC
CC
CC
CC
FE
FE
ENDCHAR
STARTCHAR 1EA5
ENCODING 7845
SWIDTH 576 0
DWIDTH 8 0
BBX 7 13 1 0
BITMAP
04
30
00
70
F8
CC
CC
CC
CC
CC
CC
FE
FE
ENDCHAR
STARTCHAR 1EA6
ENCODING 7846
SWIDTH 576 0
DWIDTH 8 0
BBX 7 13 1 0
BITMAP
80
30
00
70
F8
CC
CC
CC
CC
CC
CC
FE
FE
ENDCHAR
STARTCHAR 1EA7
ENCODING 7847
SWIDTH 576 0
DWIDTH 8 0
BBX 7 13 1 0
BITMAP
80
30
00
70
F8
CC
CC
CC
CC
CC
CC
FE
FE
ENDCHAR
STARTCHAR 1EA8
ENCODING 7848
SWIDTH 576 0
DWIDTH 8 0
BBX 7 14 1 0
BITMAP
04
08
30
00
70
F8
CC
CC
CC
CC
CC
CC
FE
FE
ENDCHAR
STARTCHAR 1EA9
ENCODING 7849
SWIDTH 576 0
DWIDTH 8 0
BBX 7 14 1 0
BITMAP
04
08
30
00
70
F8
CC
CC
CC
CC
CC
CC
FE
FE
ENDCHAR
STARTCHAR 1EAA
ENCODING 7850
SWIDTH 576 0
DWIDTH 8 0
BBX 7 13 1 0
BITMAP
0E
30
00
70
F8
CC
CC
CC
CC
CC
CC
FE
FE
ENDCHAR
STARTCHAR 1EAB
ENCODING 7851
SWIDTH 576 0
DWIDTH 8 0
BBX 7 13 1 0
BITMAP
0E
30
00
70
F8
CC
CC
CC
CC
CC
CC
FE
FE
ENDCHAR
STARTCHAR 1EAC
ENCODING 7852
SWIDTH 576 0
DWIDTH 8 0
BBX 7 16 1 -3
BITMAP
30
00
70
F8
CC
CC
CC
CC
CC
CC
FE
FE
00
20
30
30
ENDCHAR
STARTCHAR 1EAD
ENCODING 7853
SWIDTH 576 0
DWIDTH 8 0
BBX 7 16 1 -3
BITMAP
30
00
70
F8
CC
CC
CC
CC
CC
CC
FE
FE
00
20
30
30
ENDCHAR
STARTCHAR 1EAE
ENCODING 7854
SWIDTH 576 0
DWIDTH 8 0
BBX 7 13 1 0
BITMAP
06
70
00
70
F8
CC
CC
CC
CC
CC
CC
FE
FE
ENDCHAR
STARTCHAR 1EAF
ENCODING 7855
SWIDTH 576 0
DWIDTH 8 0
BBX 7 13 1 0
BITMAP
06
70
00
70
F8
CC
CC
CC
CC
CC
CC
FE
FE
ENDCHAR
STARTCHAR 1EB0
ENCODING 7856
SWIDTH 576 0
DWIDTH 8 0
BBX 8 13 0 0
BITMAP
C0
38
00
38
7C
66
66
66
66
66
66
7F
7F
ENDCHAR
STARTCHAR 1EB1
ENCODING 7857
SWIDTH 576 0
DWIDTH 8 0
BBX 8 13 0 0
BITMAP
C0
38
00
38
7C
66
66
66
66
66
66
7F
7F
ENDCHAR
STARTCHAR 1EB2
ENCODING 7858
SWIDTH 576 0
DWIDTH 8 0
BBX 7 14 1 0
BITMAP
04
04
74
00
70
F8
CC
CC
CC
CC
CC
CC
FE
FE
ENDCHAR
STARTCHAR 1EB3
ENCODING 7859
SWIDTH 576 0
DWIDTH 8 0
BBX 7 14 1 0
BITMAP
04
04
74
00
70
F8
CC
CC
CC
CC
CC
CC
FE
FE
ENDCHAR
STARTCHAR 1EB4
ENCODING 7860
SWIDTH 576 0
DWIDTH 8 0
BBX 7 14 1 0
BITMAP
3C
00
70
00
70
F8
CC
CC
CC
CC
CC
CC
FE
FE
ENDCHAR
STARTCHAR 1EB5
ENCODING 7861
SWIDTH 576 0
DWIDTH 8 0
BBX 7 14 1 0
BITMAP
3C
00
70
00
70
F8
CC
CC
CC
CC
CC
CC
FE
FE
ENDCHAR
STARTCHAR 1EB6
ENCODING 7862
SWIDTH 576 0
DWIDTH 8 0
BBX 7 16 1 -4
BITMAP
70
00
70
F8
CC
CC
CC
CC
CC
CC
FE
FE
00
20
30
30
ENDCHAR
STARTCHAR 1EB7
ENCODING 7863
SWIDTH 576 0
DWIDTH 8 0
BBX 7 16 1 -4
BITMAP
70
00
70
F8
CC
CC
CC
CC
CC
CC
FE
FE
00
20
30
30
ENDCHAR
STARTCHAR 1EB8
ENCODING 7864
SWIDTH 504 0
DWIDTH 7 0
BBX 7 14 0 -4
BITMAP
78
78
60
60
FC
FC
60
60
7E
7E
00
08
18
18
ENDCHAR
STARTCHAR 1EB9
ENCODING 7865
SWIDTH 504 0
DWIDTH 7 0
BBX 7 14 0 -4
BITMAP
78
78
60
60
FC
FC
60
60
7E
7E
00
08
18
18
ENDCHAR
STARTCHAR 1EBA
ENCODING 7866
SWIDTH 504 0
DWIDTH 7 0
BBX 7 13 0 0
BITMAP
10
10
00
78
78
60
60
FC
FC
60
60
7E
7E
ENDCHAR
STARTCHAR 1EBB
ENCODING 7867
SWIDTH 504 0
DWIDTH 7 0
BBX 7 13 0 0
BITMAP
10
10
00
78
78
60
60
FC
FC
60
60
7E
7E
ENDCHAR
STARTCHAR 1EBC
ENCODING 7868
SWIDTH 504 0
DWIDTH 7 0
BBX 7 12 0 0
BITMAP
78
00
78
78
60
60
FC
FC
60
60
7E
7E
ENDCHAR
STARTCHAR 1EBD
ENCODING 7869
SWIDTH 504 0
DWIDTH 7 0
BBX 7 12 0 0
BITMAP
78
00
78
78
60
60
FC
FC
60
60
7E
7E
ENDCHAR
STARTCHAR 1EBE
ENCODING 7870
SWIDTH 504 0
DWIDTH 7 0
BBX 7 13 0 0
BITMAP
04
30
08
78
78
60
60
FC
FC
60
60
7E
7E
ENDCHAR
STARTCHAR 1EBF
ENCODING 7871
SWIDTH 504 0
DWIDTH 7 0
BBX 7 13 0 0
BITMAP
04
30
08
78
78
60
60
FC
FC
60
60
7E
7E
ENDCHAR
STARTCHAR 1EC0
ENCODING 7872
SWIDTH 504 0
DWIDTH 7 0
BBX 7 13 0 0
BITMAP
C0
30
08
78
78
60
60
FC
FC
60
60
7E
7E
ENDCHAR
STARTCHAR 1EC1
ENCODING 7873
SWIDTH 504 0
DWIDTH 7 0
BBX 7 13 0 0
BITMAP
C0
30
08
78
78
60
60
FC
FC
60
60
7E
7E
ENDCHAR
STARTCHAR 1EC2
ENCODING 7874
SWIDTH 504 0
DWIDTH 7 0
BBX 7 14 0 0
BITMAP
04
04
30
08
78
78
60
60
FC
FC
60
60
7E
7E
ENDCHAR
STARTCHAR 1EC3
ENCODING 7875
SWIDTH 504 0
DWIDTH 7 0
BBX 7 14 0 0
BITMAP
04
04
30
08
78
78
60
60
FC
FC
60
60
7E
7E
ENDCHAR
STARTCHAR 1EC4
ENCODING 7876
SWIDTH 504 0
DWIDTH 7 0
BBX 8 13 0 0
BITMAP
07
30
08
78
78
60
60
FC
FC
60
60
7E
7E
ENDCHAR
STARTCHAR 1EC5
ENCODING 7877
SWIDTH 504 0
DWIDTH 7 0
BBX 8 13 0 0
BITMAP
07
30
08
78
78
60
60
FC
FC
60
60
7E
7E
ENDCHAR
STARTCHAR 1EC6
ENCODING 7878
SWIDTH 504 0
DWIDTH 7 0
BBX 7 16 0 -3
BITMAP
30
08
78
78
60
60
FC
FC
60
60
7E
7E
00
08
18
18
ENDCHAR
STARTCHAR 1EC7
ENCODING 7879
SWIDTH 504 0
DWIDTH 7 0
BBX 7 16 0 -3
BITMAP
30
08
78
78
60
60
FC
FC
60
60
7E
7E
00
08
18
18
ENDCHAR
STARTCHAR 1EC8
ENCODING 7880
SWIDTH 216 0
DWIDTH 3 0
BBX 2 9 1 0
BITMAP
C0
80
00
C0
C0
C0
C0
C0
C0
ENDCHAR
STARTCHAR 1EC9
ENCODING 7881
SWIDTH 216 0
DWIDTH 3 0
BBX 2 9 1 0
BITMAP
C0
80
00
C0
C0
C0
C0
C0
C0
ENDCHAR
STARTCHAR 1ECA
ENCODING 7882
SWIDTH 216 0
DWIDTH 3 0
BBX 4 15 0 -4
BITMAP
40
F0
60
20
00
60
60
60
60
60
60
00
40
60
60
ENDCHAR
STARTCHAR 1ECB
ENCODING 7883
SWIDTH 216 0
DWIDTH 3 0
BBX 4 15 0 -4
BITMAP
40
F0
60
20
00
60
60
60
60
60
60
00
40
60
60
ENDCHAR
STARTCHAR 1ECC
ENCODING 7884
SWIDTH 792 0
DWIDTH 11 0
BBX 10 14 1 -4
BITMAP
1E00
7F00
E380
C1C0
C0C0
C0C0
C0C0
E180
7F80
3E00
0000
0800
0C00
0C00
ENDCHAR
STARTCHAR 1ECD
ENCODING 7885
SWIDTH 792 0
DWIDTH 11 0
BBX 10 14 1 -4
BITMAP
1E00
7F00
E380
C1C0
C0C0
C0C0
C0C0
E180
7F80
3E00
0000
0800
0C00
0C00
ENDCHAR
STARTCHAR 1ECE
ENCODING 7886
SWIDTH 792 0
DWIDTH 11 0
BBX 10 13 1 0
BITMAP
0800
0800
0000
1E00
7F00
E380
C1C0
C0C0
C0C0
C0C0
E180
7F80
3E00
ENDCHAR
STARTCHAR 1ECF
ENCODING 7887
SWIDTH 792 0
DWIDTH 11 0
BBX 10 13 1 0
BITMAP
0800
0800
0000
1E00
7F00
E380
C1C0
C0C0
C0C0
C0C0
E180
7F80
3E00
ENDCHAR
STARTCHAR 1ED0
ENCODING 7888
SWIDTH 792 0
DWIDTH 11 0
BBX 10 13 1 0
BITMAP
0100
0C00
0000
1E00
7F00
E380
C1C0
C0C0
C0C0
C0C0
E180
7F80
3E00
ENDCHAR
STARTCHAR 1ED1
ENCODING 7889
SWIDTH 792 0
DWIDTH 11 0
BBX 10 13 1 0
BITMAP
0100
0C00
0000
1E00
7F00
E380
C1C0
C0C0
C0C0
C0C0
E180
7F80
3E00
ENDCHAR
STARTCHAR 1ED2
ENCODING 7890
SWIDTH 792 0
DWIDTH 11 0
BBX 10 13 1 0
BITMAP
2000
0C00
0000
1E00
7F00
E380
C1C0
C0C0
C0C0
C0C0
E180
7F80
3E00
ENDCHAR
STARTCHAR 1ED3
ENCODING 7891
SWIDTH 792 0
DWIDTH 11 0
BBX 10 13 1 0
BITMAP
2000
0C00
0000
1E00
7F00
E380
C1C0
C0C0
C0C0
C0C0
E180
7F80
3E00
ENDCHAR
STARTCHAR 1ED4
ENCODING 7892
SWIDTH 792 0
DWIDTH 11 0
BBX 10 14 1 0
BITMAP
0300
0200
0C00
0000
1E00
7F00
E380
C1C0
C0C0
C0C0
C0C0
E180
7F80
3E00
ENDCHAR
STARTCHAR 1ED5
ENCODING 7893
SWIDTH 792 0
DWIDTH 11 0
BBX 10 14 1 0
BITMAP
0300
0200
0C00
0000
1E00
7F00
E380
C1C0
C0C0
C0C0
C0C0
E180
7F80
3E00
ENDCHAR
STARTCHAR 1ED6
ENCODING 7894
SWIDTH 792 0
DWIDTH 11 0
BBX 10 13 1 0
BITMAP
0380
0C00
0000
1E00
7F00
E380
C1C0
C0C0
C0C0
C0C0
E180
7F80
3E00
ENDCHAR
STARTCHAR 1ED7
ENCODING 7895
SWIDTH 792 0
DWIDTH 11 0
BBX 10 13 1 0
BITMAP
0380
0C00
0000
1E00
7F00
E380
C1C0
C0C0
C0C0
C0C0
E180
7F80
3E00
ENDCHAR
STARTCHAR 1ED8
ENCODING 7896
SWIDTH 792 0
DWIDTH 11 0
BBX 10 16 1 -3
BITMAP
0C00
0000
1E00
7F00
E380
C1C0
C0C0
C0C0
C0C0
E180
7F80
3E00
0000
0800
0C00
0C00
ENDCHAR
STARTCHAR 1ED9
ENCODING 7897
SWIDTH 792 0
DWIDTH 11 0
BBX 10 16 1 -3
BITMAP
0C00
0000
1E00
7F00
E380
C1C0
C0C0
C0C0
C0C0
E180
7F80
3E00
0000
0800
0C00
0C00
ENDCHAR
STARTCHAR 1EDA
ENCODING 7898
SWIDTH 792 0
DWIDTH 11 0
BBX 10 12 1 0
BITMAP
0400
00C0
1E80
7F00
E380
C1C0
C0C0
C0C0
C0C0
E180
7F80
3E00
ENDCHAR
STARTCHAR 1EDB
ENCODING 7899
SWIDTH 792 0
DWIDTH 11 0
BBX 10 12 1 0
BITMAP
0400
00C0
1E80
7F00
E380
C1C0
C0C0
C0C0
C0C0
E180
7F80
3E00
ENDCHAR
STARTCHAR 1EDC
ENCODING 7900
SWIDTH 792 0
DWIDTH 11 0
BBX 10 12 1 0
BITMAP
0800
00C0
1E80
7F00
E380
C1C0
C0C0
C0C0
C0C0
E180
7F80
3E00
ENDCHAR
STARTCHAR 1EDD
ENCODING 7901
SWIDTH 792 0
DWIDTH 11 0
BBX 10 12 1 0
BITMAP
0800
00C0
1E80
7F00
E380
C1C0
C0C0
C0C0
C0C0
E180
7F80
3E00
ENDCHAR
STARTCHAR 1EDE
ENCODING 7902
SWIDTH 792 0
DWIDTH 11 0
BBX 10 13 1 0
BITMAP
0800
0800
00C0
1E80
7F00
E380
C1C0
C0C0
C0C0
C0C0
E180
7F80
3E00
ENDCHAR
STARTCHAR 1EDF
ENCODING 7903
SWIDTH 792 0
DWIDTH 11 0
BBX 10 13 1 0
BITMAP
0800
0800
00C0
1E80
7F00
E380
C1C0
C0C0
C0C0
C0C0
E180
7F80
3E00
ENDCHAR
STARTCHAR 1EE0
ENCODING 7904
SWIDTH 792 0
DWIDTH 11 0
BBX 10 12 1 0
BITMAP
1C00
00C0
1E80
7F00
E380
C1C0
C0C0
C0C0
C0C0
E180
7F80
3E00
ENDCHAR
STARTCHAR 1EE1
ENCODING 7905
SWIDTH 792 0
DWIDTH 11 0
BBX 10 12 1 0
BITMAP
1C00
00C0
1E80
7F00
E380
C1C0
C0C0
C0C0
C0C0
E180
7F80
3E00
ENDCHAR
STARTCHAR 1EE2
ENCODING 7906
SWIDTH 792 0
DWIDTH 11 0
BBX 10 15 1 -4
BITMAP
00C0
1E80
7F00
E380
C1C0
C0C0
C0C0
C0C0
E180
7F80
3E00
0000
0800
0C00
0C00
ENDCHAR
STARTCHAR 1EE3
ENCODING 7907
SWIDTH 792 0
DWIDTH 11 0
BBX 10 15 1 -4
BITMAP
00C0
1E80
7F00
E380
C1C0
C0C0
C0C0
C0C0
E180
7F80
3E00
0000
0800
0C00
0C00
ENDCHAR
STARTCHAR 1EE4
ENCODING 7908
SWIDTH 504 0
DWIDTH 7 0
BBX 6 14 1 -4
BITMAP
CC
CC
CC
CC
CC
CC
CC
CC
FC
78
00
20
30
30
ENDCHAR
STARTCHAR 1EE5
ENCODING 7909
SWIDTH 504 0
DWIDTH 7 0
BBX 6 14 1 -4
BITMAP
CC
CC
CC
CC
CC
CC
CC
CC
FC
78
00
20
30
30
ENDCHAR
STARTCHAR 1EE6
ENCODING 7910
SWIDTH 504 0
DWIDTH 7 0
BBX 6 13 1 0
BITMAP
30
20
00
CC
CC
CC
CC
CC
CC
CC
CC
FC
78
ENDCHAR
STARTCHAR 1EE7
ENCODING 7911
SWIDTH 504 0
DWIDTH 7 0
BBX 6 13 1 0
BITMAP
30
20
00
CC
CC
CC
CC
CC
CC
CC
CC
FC
78
ENDCHAR
STARTCHAR 1EE8
ENCODING 7912
SWIDTH 504 0
DWIDTH 7 0
BBX 8 12 1 0
BITMAP
10
03
CE
CC
CC
CC
CC
CC
CC
CC
FC
78
ENDCHAR
STARTCHAR 1EE9
ENCODING 7913
SWIDTH 504 0
DWIDTH 7 0
BBX 8 12 1 0
BITMAP
10
03
CE
CC
CC
CC
CC
CC
CC
CC
FC
78
ENDCHAR
STARTCHAR 1EEA
ENCODING 7914
SWIDTH 504 0
DWIDTH 7 0
BBX 8 12 1 0
BITMAP
20
03
CE
CC
CC
CC
CC
CC
CC
CC
FC
78
ENDCHAR
STARTCHAR 1EEB
ENCODING 7915
SWIDTH 504 0
DWIDTH 7 0
BBX 8 12 1 0
BITMAP
20
03
CE
CC
CC
CC
CC
CC
CC
CC
FC
78
ENDCHAR
STARTCHAR 1EEC
ENCODING 7916
SWIDTH 504 0
DWIDTH 7 0
BBX 8 13 1 0
BITMAP
30
20
03
CE
CC
CC
CC
CC
CC
CC
CC
FC
78
ENDCHAR
STARTCHAR 1EED
ENCODING 7917
SWIDTH 504 0
DWIDTH 7 0
BBX 8 13 1 0
BITMAP
30
20
03
CE
CC
CC
CC
CC
CC
CC
CC
FC
78
ENDCHAR
STARTCHAR 1EEE
ENCODING 7918
SWIDTH 504 0
DWIDTH 7 0
BBX 8 12 1 0
BITMAP
70
03
CE
CC
CC
CC
CC
CC
CC
CC
FC
78
ENDCHAR
STARTCHAR 1EEF
ENCODING 7919
SWIDTH 504 0
DWIDTH 7 0
BBX 8 12 1 0
BITMAP
70
03
CE
CC
CC
CC
CC
CC
CC
CC
FC
78
ENDCHAR
STARTCHAR 1EF0
ENCODING 7920
SWIDTH 504 0
DWIDTH 7 0
BBX 8 15 1 -4
BITMAP
03
CE
CC
CC
CC
CC
CC
CC
CC
FC
78
00
20
30
30
ENDCHAR
STARTCHAR 1EF1
ENCODING 7921
SWIDTH 504 0
DWIDTH 7 0
BBX 8 15 1 -4
BITMAP
03
CE
CC
CC
CC
CC
CC
CC
CC
FC
78
00
20
30
30
ENDCHAR
STARTCHAR 1EF2
ENCODING 7922
SWIDTH 504 0
DWIDTH 7 0
BBX 6 12 1 0
BITMAP
60
00
CC
CC
CC
CC
CC
CC
F8
70
30
30
ENDCHAR
STARTCHAR 1EF3
ENCODING 7923
SWIDTH 504 0
DWIDTH 7 0
BBX 6 12 1 0
BITMAP
60
00
CC
CC
CC
CC
CC
CC
F8
70
30
30
ENDCHAR
STARTCHAR 1EF4
ENCODING 7924
SWIDTH 504 0
DWIDTH 7 0
BBX 6 14 1 -4
BITMAP
CC
CC
CC
CC
CC
CC
F8
70
30
30
00
20
30
30
ENDCHAR
STARTCHAR 1EF5
ENCODING 7925
SWIDTH 504 0
DWIDTH 7 0
BBX 6 14 1 -4
BITMAP
CC
CC
CC
CC
CC
CC
F8
70
30
30
00
20
30
30
ENDCHAR
STARTCHAR 1EF6
ENCODING 7926
SWIDTH 504 0
DWIDTH 7 0
BBX 6 13 1 0
BITMAP
20
20
00
CC
CC
CC
CC
CC
CC
F8
70
30
30
ENDCHAR
STARTCHAR 1EF7
ENCODING 7927
SWIDTH 504 0
DWIDTH 7 0
BBX 6 13 1 0
BITMAP
20
20
00
CC
CC
CC
CC
CC
CC
F8
70
30
30
ENDCHAR
STARTCHAR 1EF8
ENCODING 7928
SWIDTH 504 0
DWIDTH 7 0
BBX 6 12 1 0
BITMAP
70
00
CC
CC
CC
CC
CC
CC
F8
70
30
30
ENDCHAR
STARTCHAR 1EF9
ENCODING 7929
SWIDTH 504 0
DWIDTH 7 0
BBX 6 12 1 0
BITMAP
70
00
CC
CC
CC
CC
CC
CC
F8
70
30
30
ENDCHAR
STARTCHAR 2013
ENCODING 8211
SWIDTH 576 0
DWIDTH 8 0
BBX 6 1 1 3
BITMAP
FC
ENDCHAR
STARTCHAR 2014
ENCODING 8212
SWIDTH 792 0
DWIDTH 11 0
BBX 10 1 1 3
BITMAP
FFC0
ENDCHAR
STARTCHAR 2018
ENCODING 8216
SWIDTH 216 0
DWIDTH 3 0
BBX 2 3 1 7
BITMAP
40
C0
80
ENDCHAR
STARTCHAR 2019
ENCODING 8217
SWIDTH 216 0
DWIDTH 3 0
BBX 2 3 1 7
BITMAP
C0
80
80
ENDCHAR
STARTCHAR 201A
ENCODING 8218
SWIDTH 216 0
DWIDTH 3 0
BBX 2 3 1 -2
BITMAP
C0
80
80
ENDCHAR
STARTCHAR 201C
ENCODING 8220
SWIDTH 432 0
DWIDTH 6 0
BBX 5 3 1 7
BITMAP
58
D0
D0
ENDCHAR
STARTCHAR 201D
ENCODING 8221
SWIDTH 432 0
DWIDTH 6 0
BBX 4 3 1 7
BITMAP
D0
90
B0
ENDCHAR
STARTCHAR 201E
ENCODING 8222
SWIDTH 432 0
DWIDTH 6 0
BBX 5 3 1 -2
BITMAP
D8
90
90
ENDCHAR
STARTCHAR 2020
ENCODING 8224
SWIDTH 432 0
DWIDTH 6 0
BBX 4 7 1 3
BITMAP
60
F0
F0
60
60
60
60
ENDCHAR
STARTCHAR 2021
ENCODING 8225
SWIDTH 432 0
DWIDTH 6 0
BBX 4 7 1 3
BITMAP
60
F0
F0
60
F0
F0
60
ENDCHAR
STARTCHAR 2022
ENCODING 8226
SWIDTH 288 0
DWIDTH 4 0
BBX 3 4 1 2
BITMAP
40
E0
E0
40
ENDCHAR
STARTCHAR 2026
ENCODING 8230
SWIDTH 720 0
DWIDTH 10 0
BBX 9 2 1 0
BITMAP
DB80
DB80
ENDCHAR
STARTCHAR 2030
ENCODING 8240
SWIDTH 1368 0
DWIDTH 19 0
BBX 17 10 1 0
BITMAP
70C000
F98000
990000
FB0000
760000
04C300
09E780
1B3C80
112480
21E780
ENDCHAR
STARTCHAR 2039
ENCODING 8249
SWIDTH 360 0
DWIDTH 5 0
BBX 4 6 1 1
BITMAP
20
60
C0
C0
60
30
ENDCHAR
STARTCHAR 203A
ENCODING 8250
SWIDTH 360 0
DWIDTH 5 0
BBX 4 6 1 1
BITMAP
C0
60
30
20
60
C0
ENDCHAR
STARTCHAR 2044
ENCODING 8260
SWIDTH 648 0
DWIDTH 9 0
BBX 8 10 1 0
BITMAP
03
02
06
0C
08
10
30
60
40
C0
ENDCHAR
STARTCHAR 20AC
ENCODING 8364
SWIDTH 648 0
DWIDTH 9 0
BBX 7 10 1 0
BITMAP
0E
1E
30
FC
FC
FC
FC
30
3E
1E
ENDCHAR
STARTCHAR 2122
ENCODING 8482
SWIDTH 792 0
DWIDTH 11 0
BBX 10 5 1 5
BITMAP
F240
FFC0
4FC0
4B40
4B40
ENDCHAR
STARTCHAR 2190
ENCODING 8592
SWIDTH 792 0
DWIDTH 11 0
BBX 10 8 1 1
BITMAP
1000
3000
6000
FFC0
FFC0
6000
3000
1000
ENDCHAR
STARTCHAR 2191
ENCODING 8593
SWIDTH 576 0
DWIDTH 8 0
BBX 7 10 1 0
BITMAP
10
38
7C
D6
10
10
10
10
10
10
ENDCHAR
STARTCHAR 2192
ENCODING 8594
SWIDTH 792 0
DWIDTH 11 0
BBX 9 6 1 2
BITMAP
0600
0300
FF80
FF80
0300
0600
ENDCHAR
STARTCHAR 2193
ENCODING 8595
SWIDTH 576 0
DWIDTH 8 0
BBX 7 10 1 0
BITMAP
10
10
10
10
10
10
D6
7C
38
10
ENDCHAR
STARTCHAR 2194
ENCODING 8596
SWIDTH 936 0
DWIDTH 13 0
BBX 11 8 1 1
BITMAP
1000
3180
60C0
FFE0
FFE0
60C0
3180
1000
ENDCHAR
STARTCHAR 2195
ENCODING 8597
SWIDTH 648 0
DWIDTH 9 0
BBX 8 10 1 0
BITMAP
18
3C
7E
DB
18
18
9B
FF
3C
18
ENDCHAR
STARTCHAR 2196
ENCODING 8598
SWIDTH 648 0
DWIDTH 9 0
BBX 7 8 1 1
BITMAP
F8
F8
E0
B0
98
8C
06
02
ENDCHAR
STARTCHAR 2197
ENCODING 8599
SWIDTH 648 0
DWIDTH 9 0
BBX 8 8 1 1
BITMAP
3F
3F
0F
1F
3B
73
E0
C0
ENDCHAR
STARTCHAR 2198
ENCODING 8600
SWIDTH 648 0
DWIDTH 9 0
BBX 8 7 1 2
BITMAP
C0
60
33
1B
0F
07
3F
ENDCHAR
STARTCHAR 2199
ENCODING 8601
SWIDTH 648 0
DWIDTH 9 0
BBX 7 7 1 2
BITMAP
06
0E
9C
B8
F0
E0
F8
ENDCHAR
STARTCHAR 2202
ENCODING 8706
SWIDTH 576 0
DWIDTH 8 0
BBX 7 10 1 1
BITMAP
30
38
1C
0E
7E
FE
C6
CE
FC
78
ENDCHAR
STARTCHAR 2205
ENCODING 8709
SWIDTH 720 0
DWIDTH 10 0
BBX 8 8 1 1
BITMAP
3F
43
85
89
91
A1
43
BE
ENDCHAR
STARTCHAR 220F
ENCODING 8719
SWIDTH 648 0
DWIDTH 9 0
BBX 8 11 1 -1
BITMAP
FF
FF
66
66
66
66
66
66
66
66
66
ENDCHAR
STARTCHAR 2211
ENCODING 8721
SWIDTH 504 0
DWIDTH 7 0
BBX 5 11 1 -1
BITMAP
F8
F8
C0
60
70
30
30
60
60
C0
F8
ENDCHAR
STARTCHAR 2212
ENCODING 8722
SWIDTH 576 0
DWIDTH 8 0
BBX 6 1 1 4
BITMAP
FC
ENDCHAR
STARTCHAR 221A
ENCODING 8730
SWIDTH 720 0
DWIDTH 10 0
BBX 9 11 1 -1
BITMAP
0780
0780
0400
0C00
0C00
0C00
D800
D800
7800
7000
7000
ENDCHAR
STARTCHAR 221E
ENCODING 8734
SWIDTH 792 0
DWIDTH 11 0
BBX 10 4 1 3
BITMAP
F3C0
8C40
8C40
F7C0
ENDCHAR
STARTCHAR 222B
ENCODING 8747
SWIDTH 504 0
DWIDTH 7 0
BBX 6 12 1 -2
BITMAP
1C
18
30
30
30
30
30
20
60
60
E0
80
ENDCHAR
STARTCHAR 2248
ENCODING 8776
SWIDTH 504 0
DWIDTH 7 0
BBX 6 5 1 2
BITMAP
FC
BC
00
FC
FC
ENDCHAR
STARTCHAR 2260
ENCODING 8800
SWIDTH 576 0
DWIDTH 8 0
BBX 6 7 1 1
BITMAP
18
FC
FC
30
FC
FC
60
ENDCHAR
STARTCHAR 2264
ENCODING 8804
SWIDTH 576 0
DWIDTH 8 0
BBX 6 6 1 2
BITMAP
7C
E0
FC
0C
FC
FC
ENDCHAR
STARTCHAR 2265
ENCODING 8805
SWIDTH 576 0
DWIDTH 8 0
BBX 6 6 1 2
BITMAP
F8
1C
FC
C0
FC
FC
ENDCHAR
STARTCHAR 25CA
ENCODING 9674
SWIDTH 504 0
DWIDTH 7 0
BBX 6 8 1 1
BITMAP
30
78
58
CC
CC
58
70
30
ENDCHAR
ENDFONT
